<?xml version="1.0" encoding="utf-8"?>
<?xml-stylesheet type="text/xsl" href="rss1.xsl"?>
<rss version="2.0" xmlns:atom="http://www.w3.org/2005/Atom" xmlns:content="http://purl.org/rss/1.0/modules/content/" xmlns:dc="http://purl.org/dc/elements/1.1/" xmlns:media="http://search.yahoo.com/mrss/">
<channel>
 <title>Getty</title>
 <link>http://www.gettyimg.com/</link>
 <atom:link href="http://www.gettyimg.com/" rel="self" type="application/rss+xml" />

 
                <item>
                <title><![CDATA[【Cinema Center】SERIES - Tierra Incognita - Season 2 - 2160p Disney+ WEB-DL DDP5.1 DV HDR H.265-LAZY]]></title>
                <link><![CDATA[https://sharemania.us/threads/tierra-incognita-season-2-2160p-disney-web-dl-ddp5-1-dv-hdr-h-265-lazy.235410/]]></link>
                <description><![CDATA[<article>
<blockquote class="messageText SelectQuoteContainer ugc baseHtml">
Tierra Incógnita:<img src="http:////cdn2.broadcasthe.net/tvdb/banners/v4/series/423217/banners/6319331ed285b.jpg" class="bbCodeImage LbImage" alt="[​IMG]" data-url="http:////cdn2.broadcasthe.net/tvdb/banners/v4/series/423217/banners/6319331ed285b.jpg" style=""> <br>
<br>
<div class="bbCodeBlock bbCodeQuote">
<aside>
<blockquote class="quoteContainer"><div class="quote"><i><b>Synopsis:</b></i><br>
After his parents mysteriously disappeared eight years ago, young Eric Dalaras embarks on a search for the truth and enters a frightening world. He and his sister Uma grew up with their maternal grandparents. Eric decides to leave his homeland to return to the place of his childhood, Cabo Qwert, where he wants to look for answers at the Tierra Incógnita horror amusement park, since this is where his parents were last seen. Together with his friends, his sister and his aunt, Eric must overcome his fears in order to solve the riddles that ultimately lead him to the answers to all his questions, which are hidden in a cosmos as unknown as it is dark.</div><div class="quoteExpand">Click to expand...</div></blockquote>
</aside>
</div>
<div class="ToggleTriggerAnchor bbCodeSpoilerContainer">
<button type="button" class="button bbCodeSpoilerButton ToggleTrigger Tooltip JsOnly" data-target="> .SpoilerTarget"><span>Spoiler: <span class="SpoilerTitle">MediaInfo</span></span></button>
<div class="SpoilerTarget bbCodeSpoilerText">General<br>
Unique ID : 53816359922888931595972155037461705370 (0x287CA76678B579C3CA71D9538FCEF29A)<br>
Complete name : Tierra.Incognita.S02E01.Julia.2160p.DSNP.WEB-DL.DDP5.1.DV.HDR.H.265-LAZY.mkv<br>
Format : Matroska<br>
Format version : Version 4<br>
File size : 3.19 GiB<br>
Duration : 32 min 59 s<br>
Overall bit rate : 13.8 Mb/s<br>
Frame rate : 23.976 FPS<br>
Encoded date : 2024-01-05 23:26:23 UTC<br>
Writing application : mkvmerge v82.0 ('I'm The President') 64-bit<br>
Writing library : libebml v1.4.5 + libmatroska v1.7.1<br>
<br>
Video<br>
ID : 1<br>
Format : HEVC<br>
Format/Info : High Efficiency Video Coding<br>
Format profile : Main 10@L5@High<br>
HDR format : Dolby Vision, Version 1.0, dvhe.08.06, BL+RPU, HDR10 compatible / SMPTE ST 2086, HDR10 compatible<br>
Codec ID : V_MPEGH/ISO/HEVC<br>
Duration : 32 min 59 s<br>
Bit rate : 13.6 Mb/s<br>
Width : 3 840 pixels<br>
Height : 2 160 pixels<br>
Display aspect ratio : 16:9<br>
Frame rate mode : Constant<br>
Frame rate : 23.976 (24000/1001) FPS<br>
Color space : YUV<br>
Chroma subsampling : 4:2:0<br>
Bit depth : 10 bits<br>
Bits/(Pixel*Frame) : 0.068<br>
Stream size : 3.13 GiB (98%)<br>
Default : Yes<br>
Forced : No<br>
Color range : Limited<br>
Color primaries : BT.2020<br>
Transfer characteristics : PQ<br>
Matrix coefficients : BT.2020 non-constant<br>
Mastering display color primaries : BT.2020<br>
Mastering display luminance : min: 0.0010 cd/m2, max: 1000 cd/m2<br>
<br>
Audio<br>
ID : 2<br>
Format : E-AC-3<br>
Format/Info : Enhanced AC-3<br>
Commercial name : Dolby Digital Plus<br>
Codec ID : A_EAC3<br>
Duration : 32 min 59 s<br>
Bit rate mode : Constant<br>
Bit rate : 256 kb/s<br>
Channel(s) : 6 channels<br>
Channel layout : L R C LFE Ls Rs<br>
Sampling rate : 48.0 kHz<br>
Frame rate : 31.250 FPS (1536 SPF)<br>
Compression mode : Lossy<br>
Stream size : 60.4 MiB (2%)<br>
Title : Latin American<br>
Language : Spanish (Latin America)<br>
Service kind : Complete Main<br>
Default : Yes<br>
Forced : No<br>
<br>
Text #1<br>
ID : 3<br>
Format : UTF-8<br>
Codec ID : S_TEXT/UTF8<br>
Codec ID/Info : UTF-8 Plain Text<br>
Duration : 29 min 10 s<br>
Bit rate : 68 b/s<br>
Frame rate : 0.291 FPS<br>
Count of elements : 509<br>
Stream size : 14.6 KiB (0%)<br>
Title : SDH<br>
Language : English<br>
Default : No<br>
Forced : No<br>
<br>
Text #2<br>
ID : 4<br>
Format : UTF-8<br>
Codec ID : S_TEXT/UTF8<br>
Codec ID/Info : UTF-8 Plain Text<br>
Duration : 32 min 54 s<br>
Bit rate : 53 b/s<br>
Frame rate : 0.174 FPS<br>
Count of elements : 343<br>
Stream size : 12.9 KiB (0%)<br>
Language : Czech<br>
Default : No<br>
Forced : No<br>
<br>
Text #3<br>
ID : 5<br>
Format : UTF-8<br>
Codec ID : S_TEXT/UTF8<br>
Codec ID/Info : UTF-8 Plain Text<br>
Duration : 32 min 54 s<br>
Bit rate : 48 b/s<br>
Frame rate : 0.173 FPS<br>
Count of elements : 341<br>
Stream size : 11.7 KiB (0%)<br>
Language : Danish<br>
Default : No<br>
Forced : No<br>
<br>
Text #4<br>
ID : 6<br>
Format : UTF-8<br>
Codec ID : S_TEXT/UTF8<br>
Codec ID/Info : UTF-8 Plain Text<br>
Duration : 32 min 54 s<br>
Bit rate : 59 b/s<br>
Frame rate : 0.173 FPS<br>
Count of elements : 341<br>
Stream size : 14.2 KiB (0%)<br>
Language : German<br>
Default : No<br>
Forced : No<br>
<br>
Text #5<br>
ID : 7<br>
Format : UTF-8<br>
Codec ID : S_TEXT/UTF8<br>
Codec ID/Info : UTF-8 Plain Text<br>
Duration : 32 min 54 s<br>
Bit rate : 82 b/s<br>
Frame rate : 0.173 FPS<br>
Count of elements : 342<br>
Stream size : 20.0 KiB (0%)<br>
Language : Greek<br>
Default : No<br>
Forced : No<br>
<br>
Text #6<br>
ID : 8<br>
Format : UTF-8<br>
Codec ID : S_TEXT/UTF8<br>
Codec ID/Info : UTF-8 Plain Text<br>
Duration : 29 min 13 s<br>
Bit rate : 67 b/s<br>
Frame rate : 0.297 FPS<br>
Count of elements : 520<br>
Stream size : 14.4 KiB (0%)<br>
Title : Latin American (SDH)<br>
Language : Spanish<br>
Default : No<br>
Forced : No<br>
<br>
Text #7<br>
ID : 9<br>
Format : UTF-8<br>
Codec ID : S_TEXT/UTF8<br>
Codec ID/Info : UTF-8 Plain Text<br>
Duration : 29 min 3 s<br>
Bit rate : 61 b/s<br>
Frame rate : 0.257 FPS<br>
Count of elements : 449<br>
Stream size : 13.0 KiB (0%)<br>
Title : European<br>
Language : Spanish<br>
Default : No<br>
Forced : No<br>
<br>
Text #8<br>
ID : 10<br>
Format : UTF-8<br>
Codec ID : S_TEXT/UTF8<br>
Codec ID/Info : UTF-8 Plain Text<br>
Duration : 32 min 54 s<br>
Bit rate : 52 b/s<br>
Frame rate : 0.173 FPS<br>
Count of elements : 341<br>
Stream size : 12.6 KiB (0%)<br>
Language : Finnish<br>
Default : No<br>
Forced : No<br>
<br>
Text #9<br>
ID : 11<br>
Format : UTF-8<br>
Codec ID : S_TEXT/UTF8<br>
Codec ID/Info : UTF-8 Plain Text<br>
Duration : 32 min 54 s<br>
Bit rate : 55 b/s<br>
Frame rate : 0.173 FPS<br>
Count of elements : 342<br>
Stream size : 13.3 KiB (0%)<br>
Language : French<br>
Default : No<br>
Forced : No<br>
<br>
Text #10<br>
ID : 12<br>
Format : UTF-8<br>
Codec ID : S_TEXT/UTF8<br>
Codec ID/Info : UTF-8 Plain Text<br>
Duration : 32 min 54 s<br>
Bit rate : 53 b/s<br>
Frame rate : 0.173 FPS<br>
Count of elements : 341<br>
Stream size : 12.9 KiB (0%)<br>
Language : Hungarian<br>
Default : No<br>
Forced : No<br>
<br>
Text #11<br>
ID : 13<br>
Format : UTF-8<br>
Codec ID : S_TEXT/UTF8<br>
Codec ID/Info : UTF-8 Plain Text<br>
Duration : 32 min 54 s<br>
Bit rate : 51 b/s<br>
Frame rate : 0.171 FPS<br>
Count of elements : 338<br>
Stream size : 12.5 KiB (0%)<br>
Language : Italian<br>
Default : No<br>
Forced : No<br>
<br>
Text #12<br>
ID : 14<br>
Format : UTF-8<br>
Codec ID : S_TEXT/UTF8<br>
Codec ID/Info : UTF-8 Plain Text<br>
Duration : 32 min 54 s<br>
Bit rate : 46 b/s<br>
Frame rate : 0.212 FPS<br>
Count of elements : 418<br>
Stream size : 11.1 KiB (0%)<br>
Language : Japanese<br>
Default : No<br>
Forced : No<br>
<br>
Text #13<br>
ID : 15<br>
Format : UTF-8<br>
Codec ID : S_TEXT/UTF8<br>
Codec ID/Info : UTF-8 Plain Text<br>
Duration : 32 min 54 s<br>
Bit rate : 60 b/s<br>
Frame rate : 0.175 FPS<br>
Count of elements : 346<br>
Stream size : 14.6 KiB (0%)<br>
Language : Korean<br>
Default : No<br>
Forced : No<br>
<br>
Text #14<br>
ID : 16<br>
Format : UTF-8<br>
Codec ID : S_TEXT/UTF8<br>
Codec ID/Info : UTF-8 Plain Text<br>
Duration : 32 min 54 s<br>
Bit rate : 52 b/s<br>
Frame rate : 0.173 FPS<br>
Count of elements : 341<br>
Stream size : 12.7 KiB (0%)<br>
Language : Dutch<br>
Default : No<br>
Forced : No<br>
<br>
Text #15<br>
ID : 17<br>
Format : UTF-8<br>
Codec ID : S_TEXT/UTF8<br>
Codec ID/Info : UTF-8 Plain Text<br>
Duration : 32 min 54 s<br>
Bit rate : 50 b/s<br>
Frame rate : 0.173 FPS<br>
Count of elements : 341<br>
Stream size : 12.1 KiB (0%)<br>
Language : Norwegian<br>
Default : No<br>
Forced : No<br>
<br>
Text #16<br>
ID : 18<br>
Format : UTF-8<br>
Codec ID : S_TEXT/UTF8<br>
Codec ID/Info : UTF-8 Plain Text<br>
Duration : 32 min 54 s<br>
Bit rate : 46 b/s<br>
Frame rate : 0.172 FPS<br>
Count of elements : 339<br>
Stream size : 11.2 KiB (0%)<br>
Language : Polish<br>
Default : No<br>
Forced : No<br>
<br>
Text #17<br>
ID : 19<br>
Format : UTF-8<br>
Codec ID : S_TEXT/UTF8<br>
Codec ID/Info : UTF-8 Plain Text<br>
Duration : 32 min 54 s<br>
Bit rate : 54 b/s<br>
Frame rate : 0.171 FPS<br>
Count of elements : 338<br>
Stream size : 13.1 KiB (0%)<br>
Title : Brazilian<br>
Language : Portuguese<br>
Default : No<br>
Forced : No<br>
<br>
Text #18<br>
ID : 20<br>
Format : UTF-8<br>
Codec ID : S_TEXT/UTF8<br>
Codec ID/Info : UTF-8 Plain Text<br>
Duration : 32 min 54 s<br>
Bit rate : 53 b/s<br>
Frame rate : 0.172 FPS<br>
Count of elements : 339<br>
Stream size : 12.9 KiB (0%)<br>
Title : European<br>
Language : Portuguese<br>
Default : No<br>
Forced : No<br>
<br>
Text #19<br>
ID : 21<br>
Format : UTF-8<br>
Codec ID : S_TEXT/UTF8<br>
Codec ID/Info : UTF-8 Plain Text<br>
Duration : 32 min 54 s<br>
Bit rate : 52 b/s<br>
Frame rate : 0.173 FPS<br>
Count of elements : 342<br>
Stream size : 12.7 KiB (0%)<br>
Language : Romanian<br>
Default : No<br>
Forced : No<br>
<br>
Text #20<br>
ID : 22<br>
Format : UTF-8<br>
Codec ID : S_TEXT/UTF8<br>
Codec ID/Info : UTF-8 Plain Text<br>
Duration : 32 min 54 s<br>
Bit rate : 52 b/s<br>
Frame rate : 0.174 FPS<br>
Count of elements : 343<br>
Stream size : 12.7 KiB (0%)<br>
Language : Slovak<br>
Default : No<br>
Forced : No<br>
<br>
Text #21<br>
ID : 23<br>
Format : UTF-8<br>
Codec ID : S_TEXT/UTF8<br>
Codec ID/Info : UTF-8 Plain Text<br>
Duration : 32 min 54 s<br>
Bit rate : 50 b/s<br>
Frame rate : 0.173 FPS<br>
Count of elements : 341<br>
Stream size : 12.3 KiB (0%)<br>
Language : Swedish<br>
Default : No<br>
Forced : No<br>
<br>
Text #22<br>
ID : 24<br>
Format : UTF-8<br>
Codec ID : S_TEXT/UTF8<br>
Codec ID/Info : UTF-8 Plain Text<br>
Duration : 32 min 54 s<br>
Bit rate : 54 b/s<br>
Frame rate : 0.173 FPS<br>
Count of elements : 341<br>
Stream size : 13.0 KiB (0%)<br>
Language : Turkish<br>
Default : No<br>
Forced : No<br>
<br>
Text #23<br>
ID : 25<br>
Format : UTF-8<br>
Codec ID : S_TEXT/UTF8<br>
Codec ID/Info : UTF-8 Plain Text<br>
Duration : 32 min 55 s<br>
Bit rate : 49 b/s<br>
Frame rate : 0.178 FPS<br>
Count of elements : 351<br>
Stream size : 12.0 KiB (0%)<br>
Title : Traditional<br>
Language : Chinese<br>
Default : No<br>
Forced : No<br>
<br>
Menu<br>
00:00:04.004 : en:Recap<br>
00:02:36.365 : en:Scene 1<br>
00:04:27.518 : en:Intro<br>
00:04:42.491 : en:Scene 2<br>
00:08:46.235 : en:Scene 3<br>
00:17:24.169 : en:Scene 4<br>
00:25:46.547 : en:Scene 5<br>
00:29:13.003 : en:Credits</div>
</div><br>
Screenshots:<br>
<img src="https://i.imgur.com/LNQqkDQ.jpg" class="bbCodeImage LbImage" alt="[​IMG]" data-url="https://i.imgur.com/LNQqkDQ.jpg" style=""> <br>
<br>
<div class="bbCodeBlock bbCodeVfcHH HiddenContent">
<div class="attribution type">Hidden Content:</div>
<blockquote>You must either reply or click 'Like' to see the hidden information contained here.</blockquote>
</div>
<div class="messageTextEndMarker">&nbsp;</div>
</blockquote>
</article>]]></description>
                <author><![CDATA[LazyRips]]></author>
                </item>

                
                <item>
                <title><![CDATA[【Cinema Center】SERIES - Tierra Incognita - Season 2 - 1080p Disney+ WEB-DL DDP5.1 H.264-LAZY]]></title>
                <link><![CDATA[https://sharemania.us/threads/tierra-incognita-season-2-1080p-disney-web-dl-ddp5-1-h-264-lazy.235411/]]></link>
                <description><![CDATA[<article>
<blockquote class="messageText SelectQuoteContainer ugc baseHtml">
Tierra Incógnita:<img src="http:////cdn2.broadcasthe.net/tvdb/banners/v4/series/423217/banners/6319331ed285b.jpg" class="bbCodeImage LbImage" alt="[​IMG]" data-url="http:////cdn2.broadcasthe.net/tvdb/banners/v4/series/423217/banners/6319331ed285b.jpg" style=""> <br>
<br>
<div class="bbCodeBlock bbCodeQuote">
<aside>
<blockquote class="quoteContainer"><div class="quote"><i><b>Synopsis:</b></i><br>
After his parents mysteriously disappeared eight years ago, young Eric Dalaras embarks on a search for the truth and enters a frightening world. He and his sister Uma grew up with their maternal grandparents. Eric decides to leave his homeland to return to the place of his childhood, Cabo Qwert, where he wants to look for answers at the Tierra Incógnita horror amusement park, since this is where his parents were last seen. Together with his friends, his sister and his aunt, Eric must overcome his fears in order to solve the riddles that ultimately lead him to the answers to all his questions, which are hidden in a cosmos as unknown as it is dark.</div><div class="quoteExpand">Click to expand...</div></blockquote>
</aside>
</div>
<div class="ToggleTriggerAnchor bbCodeSpoilerContainer">
<button type="button" class="button bbCodeSpoilerButton ToggleTrigger Tooltip JsOnly" data-target="> .SpoilerTarget"><span>Spoiler: <span class="SpoilerTitle">MediaInfo</span></span></button>
<div class="SpoilerTarget bbCodeSpoilerText">General<br>
Unique ID : 38710344938669618693756133172174173507 (0x1D1F575BFEEBBACE64A99C268748B543)<br>
Complete name : Tierra.Incognita.S02E01.Julia.1080p.DSNP.WEB-DL.DDP5.1.H.264-LAZY.mkv<br>
Format : Matroska<br>
Format version : Version 4<br>
File size : 1.50 GiB<br>
Duration : 32 min 59 s<br>
Overall bit rate mode : Variable<br>
Overall bit rate : 6 494 kb/s<br>
Encoded date : UTC 2024-01-06 21:07:10<br>
Writing application : mkvmerge v82.0 ('I'm The President') 64-bit<br>
Writing library : libebml v1.4.5 + libmatroska v1.7.1<br>
<br>
Video<br>
ID : 1<br>
Format : AVC<br>
Format/Info : Advanced Video Codec<br>
Format profile : High@L4<br>
Format settings : CABAC / 4 Ref Frames<br>
Format settings, CABAC : Yes<br>
Format settings, Reference frames : 4 frames<br>
Codec ID : V_MPEG4/ISO/AVC<br>
Duration : 32 min 59 s<br>
Bit rate mode : Variable<br>
Bit rate : 6 234 kb/s<br>
Maximum bit rate : 12.7 Mb/s<br>
Width : 1 920 pixels<br>
Height : 1 080 pixels<br>
Display aspect ratio : 16:9<br>
Frame rate mode : Constant<br>
Frame rate : 23.976 (24000/1001) FPS<br>
Color space : YUV<br>
Chroma subsampling : 4:2:0<br>
Bit depth : 8 bits<br>
Scan type : Progressive<br>
Bits/(Pixel*Frame) : 0.125<br>
Stream size : 1.44 GiB (96%)<br>
Default : Yes<br>
Forced : No<br>
Color range : Limited<br>
Color primaries : BT.709<br>
Transfer characteristics : BT.709<br>
Matrix coefficients : BT.709<br>
<br>
Audio<br>
ID : 2<br>
Format : E-AC-3<br>
Format/Info : Enhanced AC-3<br>
Commercial name : Dolby Digital Plus<br>
Codec ID : A_EAC3<br>
Duration : 32 min 59 s<br>
Bit rate mode : Constant<br>
Bit rate : 256 kb/s<br>
Channel(s) : 6 channels<br>
Channel layout : L R C LFE Ls Rs<br>
Sampling rate : 48.0 kHz<br>
Frame rate : 31.250 FPS (1536 SPF)<br>
Compression mode : Lossy<br>
Stream size : 60.4 MiB (4%)<br>
Title : Latin American<br>
Language : Spanish<br>
Service kind : Complete Main<br>
Default : Yes<br>
Forced : No<br>
<br>
Text #1<br>
ID : 3<br>
Format : UTF-8<br>
Codec ID : S_TEXT/UTF8<br>
Codec ID/Info : UTF-8 Plain Text<br>
Duration : 29 min 10 s<br>
Bit rate : 68 b/s<br>
Count of elements : 509<br>
Stream size : 14.6 KiB (0%)<br>
Title : SDH<br>
Language : English<br>
Default : No<br>
Forced : No<br>
<br>
Text #2<br>
ID : 4<br>
Format : UTF-8<br>
Codec ID : S_TEXT/UTF8<br>
Codec ID/Info : UTF-8 Plain Text<br>
Duration : 32 min 54 s<br>
Bit rate : 53 b/s<br>
Count of elements : 343<br>
Stream size : 12.9 KiB (0%)<br>
Language : Czech<br>
Default : No<br>
Forced : No<br>
<br>
Text #3<br>
ID : 5<br>
Format : UTF-8<br>
Codec ID : S_TEXT/UTF8<br>
Codec ID/Info : UTF-8 Plain Text<br>
Duration : 32 min 54 s<br>
Bit rate : 48 b/s<br>
Count of elements : 341<br>
Stream size : 11.7 KiB (0%)<br>
Language : Danish<br>
Default : No<br>
Forced : No<br>
<br>
Text #4<br>
ID : 6<br>
Format : UTF-8<br>
Codec ID : S_TEXT/UTF8<br>
Codec ID/Info : UTF-8 Plain Text<br>
Duration : 32 min 54 s<br>
Bit rate : 59 b/s<br>
Count of elements : 341<br>
Stream size : 14.2 KiB (0%)<br>
Language : German<br>
Default : No<br>
Forced : No<br>
<br>
Text #5<br>
ID : 7<br>
Format : UTF-8<br>
Codec ID : S_TEXT/UTF8<br>
Codec ID/Info : UTF-8 Plain Text<br>
Duration : 32 min 54 s<br>
Bit rate : 82 b/s<br>
Count of elements : 342<br>
Stream size : 20.0 KiB (0%)<br>
Language : Greek<br>
Default : No<br>
Forced : No<br>
<br>
Text #6<br>
ID : 8<br>
Format : UTF-8<br>
Codec ID : S_TEXT/UTF8<br>
Codec ID/Info : UTF-8 Plain Text<br>
Duration : 29 min 13 s<br>
Bit rate : 67 b/s<br>
Count of elements : 520<br>
Stream size : 14.4 KiB (0%)<br>
Title : Latin American (SDH)<br>
Language : Spanish<br>
Default : No<br>
Forced : No<br>
<br>
Text #7<br>
ID : 9<br>
Format : UTF-8<br>
Codec ID : S_TEXT/UTF8<br>
Codec ID/Info : UTF-8 Plain Text<br>
Duration : 29 min 3 s<br>
Bit rate : 61 b/s<br>
Count of elements : 449<br>
Stream size : 13.0 KiB (0%)<br>
Title : European<br>
Language : Spanish<br>
Default : No<br>
Forced : No<br>
<br>
Text #8<br>
ID : 10<br>
Format : UTF-8<br>
Codec ID : S_TEXT/UTF8<br>
Codec ID/Info : UTF-8 Plain Text<br>
Duration : 32 min 54 s<br>
Bit rate : 52 b/s<br>
Count of elements : 341<br>
Stream size : 12.6 KiB (0%)<br>
Language : Finnish<br>
Default : No<br>
Forced : No<br>
<br>
Text #9<br>
ID : 11<br>
Format : UTF-8<br>
Codec ID : S_TEXT/UTF8<br>
Codec ID/Info : UTF-8 Plain Text<br>
Duration : 32 min 54 s<br>
Bit rate : 55 b/s<br>
Count of elements : 342<br>
Stream size : 13.3 KiB (0%)<br>
Language : French<br>
Default : No<br>
Forced : No<br>
<br>
Text #10<br>
ID : 12<br>
Format : UTF-8<br>
Codec ID : S_TEXT/UTF8<br>
Codec ID/Info : UTF-8 Plain Text<br>
Duration : 32 min 54 s<br>
Bit rate : 53 b/s<br>
Count of elements : 341<br>
Stream size : 12.9 KiB (0%)<br>
Language : Hungarian<br>
Default : No<br>
Forced : No<br>
<br>
Text #11<br>
ID : 13<br>
Format : UTF-8<br>
Codec ID : S_TEXT/UTF8<br>
Codec ID/Info : UTF-8 Plain Text<br>
Duration : 32 min 54 s<br>
Bit rate : 51 b/s<br>
Count of elements : 338<br>
Stream size : 12.5 KiB (0%)<br>
Language : Italian<br>
Default : No<br>
Forced : No<br>
<br>
Text #12<br>
ID : 14<br>
Format : UTF-8<br>
Codec ID : S_TEXT/UTF8<br>
Codec ID/Info : UTF-8 Plain Text<br>
Duration : 32 min 54 s<br>
Bit rate : 46 b/s<br>
Count of elements : 418<br>
Stream size : 11.1 KiB (0%)<br>
Language : Japanese<br>
Default : No<br>
Forced : No<br>
<br>
Text #13<br>
ID : 15<br>
Format : UTF-8<br>
Codec ID : S_TEXT/UTF8<br>
Codec ID/Info : UTF-8 Plain Text<br>
Duration : 32 min 54 s<br>
Bit rate : 60 b/s<br>
Count of elements : 346<br>
Stream size : 14.6 KiB (0%)<br>
Language : Korean<br>
Default : No<br>
Forced : No<br>
<br>
Text #14<br>
ID : 16<br>
Format : UTF-8<br>
Codec ID : S_TEXT/UTF8<br>
Codec ID/Info : UTF-8 Plain Text<br>
Duration : 32 min 54 s<br>
Bit rate : 52 b/s<br>
Count of elements : 341<br>
Stream size : 12.7 KiB (0%)<br>
Language : Dutch<br>
Default : No<br>
Forced : No<br>
<br>
Text #15<br>
ID : 17<br>
Format : UTF-8<br>
Codec ID : S_TEXT/UTF8<br>
Codec ID/Info : UTF-8 Plain Text<br>
Duration : 32 min 54 s<br>
Bit rate : 50 b/s<br>
Count of elements : 341<br>
Stream size : 12.1 KiB (0%)<br>
Language : Norwegian<br>
Default : No<br>
Forced : No<br>
<br>
Text #16<br>
ID : 18<br>
Format : UTF-8<br>
Codec ID : S_TEXT/UTF8<br>
Codec ID/Info : UTF-8 Plain Text<br>
Duration : 32 min 54 s<br>
Bit rate : 46 b/s<br>
Count of elements : 339<br>
Stream size : 11.2 KiB (0%)<br>
Language : Polish<br>
Default : No<br>
Forced : No<br>
<br>
Text #17<br>
ID : 19<br>
Format : UTF-8<br>
Codec ID : S_TEXT/UTF8<br>
Codec ID/Info : UTF-8 Plain Text<br>
Duration : 32 min 54 s<br>
Bit rate : 54 b/s<br>
Count of elements : 338<br>
Stream size : 13.1 KiB (0%)<br>
Title : Brazilian<br>
Language : Portuguese<br>
Default : No<br>
Forced : No<br>
<br>
Text #18<br>
ID : 20<br>
Format : UTF-8<br>
Codec ID : S_TEXT/UTF8<br>
Codec ID/Info : UTF-8 Plain Text<br>
Duration : 32 min 54 s<br>
Bit rate : 53 b/s<br>
Count of elements : 339<br>
Stream size : 12.9 KiB (0%)<br>
Title : European<br>
Language : Portuguese<br>
Default : No<br>
Forced : No<br>
<br>
Text #19<br>
ID : 21<br>
Format : UTF-8<br>
Codec ID : S_TEXT/UTF8<br>
Codec ID/Info : UTF-8 Plain Text<br>
Duration : 32 min 54 s<br>
Bit rate : 52 b/s<br>
Count of elements : 342<br>
Stream size : 12.7 KiB (0%)<br>
Language : Romanian<br>
Default : No<br>
Forced : No<br>
<br>
Text #20<br>
ID : 22<br>
Format : UTF-8<br>
Codec ID : S_TEXT/UTF8<br>
Codec ID/Info : UTF-8 Plain Text<br>
Duration : 32 min 54 s<br>
Bit rate : 52 b/s<br>
Count of elements : 343<br>
Stream size : 12.7 KiB (0%)<br>
Language : Slovak<br>
Default : No<br>
Forced : No<br>
<br>
Text #21<br>
ID : 23<br>
Format : UTF-8<br>
Codec ID : S_TEXT/UTF8<br>
Codec ID/Info : UTF-8 Plain Text<br>
Duration : 32 min 54 s<br>
Bit rate : 50 b/s<br>
Count of elements : 341<br>
Stream size : 12.3 KiB (0%)<br>
Language : Swedish<br>
Default : No<br>
Forced : No<br>
<br>
Text #22<br>
ID : 24<br>
Format : UTF-8<br>
Codec ID : S_TEXT/UTF8<br>
Codec ID/Info : UTF-8 Plain Text<br>
Duration : 32 min 54 s<br>
Bit rate : 54 b/s<br>
Count of elements : 341<br>
Stream size : 13.0 KiB (0%)<br>
Language : Turkish<br>
Default : No<br>
Forced : No<br>
<br>
Text #23<br>
ID : 25<br>
Format : UTF-8<br>
Codec ID : S_TEXT/UTF8<br>
Codec ID/Info : UTF-8 Plain Text<br>
Duration : 32 min 55 s<br>
Bit rate : 49 b/s<br>
Count of elements : 351<br>
Stream size : 12.0 KiB (0%)<br>
Title : Traditional<br>
Language : Chinese<br>
Default : No<br>
Forced : No<br>
<br>
Menu<br>
00:00:04.004 : en:Recap<br>
00:02:36.365 : en:Scene 1<br>
00:04:27.518 : en:Intro<br>
00:04:42.491 : en:Scene 2<br>
00:08:46.235 : en:Scene 3<br>
00:17:24.169 : en:Scene 4<br>
00:25:46.547 : en:Scene 5<br>
00:29:13.003 : en:Credits</div>
</div><br>
Screenshots:<br>
<img src="https://i.imgur.com/v3i0JKQ.jpg" class="bbCodeImage LbImage" alt="[​IMG]" data-url="https://i.imgur.com/v3i0JKQ.jpg" style=""> <br>
<br>
<div class="bbCodeBlock bbCodeVfcHH HiddenContent">
<div class="attribution type">Hidden Content:</div>
<blockquote>You must either reply or click 'Like' to see the hidden information contained here.</blockquote>
</div>
<div class="messageTextEndMarker">&nbsp;</div>
</blockquote>
</article>]]></description>
                <author><![CDATA[LazyRips]]></author>
                </item>

                </channel></rss>